<svg width="16" height="17" viewBox="0 0 16 17" fill="none" xmlns="http://www.w3.org/2000/svg">
<g id="arrow-up">
<g id="Union">
<path d="M2.66692 9.16603L2.66692 7.8327L10.6669 7.8327L7.00026 4.16603L7.94692 3.21937L13.2269 8.49937L7.94692 13.7794L7.00026 12.8327L10.6669 9.16603L2.66692 9.16603Z" fill="#146EF5"/>
<path fill-rule="evenodd" clip-rule="evenodd" d="M2.46692 9.36603L2.46692 7.6327L10.1841 7.6327L6.71741 4.16603L7.94692 2.93652L13.5098 8.49937L7.94692 14.0622L6.71741 12.8327L10.1841 9.36603L2.46692 9.36603ZM10.6669 9.16603L7.00026 12.8327L7.94692 13.7794L13.2269 8.49937L7.94692 3.21937L7.00026 4.16603L10.6669 7.8327L2.66692 7.8327L2.66692 9.16603L10.6669 9.16603Z" fill="#146EF5"/>
</g>
</g>
</svg>
