<svg width="1070" height="592" viewBox="0 0 1070 592" fill="none" xmlns="http://www.w3.org/2000/svg">
<path d="M0 10C0 4.47715 4.47715 0 10 0H1060C1065.52 0 1070 4.47715 1070 10V60H0V10Z" fill="#E9E9E9"/>
<circle cx="40" cy="30" r="10" fill="white"/>
<circle cx="70" cy="30" r="10" fill="white"/>
<rect x="110" y="14" width="849" height="32" rx="16" fill="white"/>
<path d="M1016 19H1049V22.6667H1016V19ZM1016 28.1667H1049V31.8333H1016V28.1667ZM1016 37.3333H1049V41H1016V37.3333Z" fill="white"/>
<rect x="110" y="172" width="220" height="32" rx="5" fill="#E9E9E9"/>
<rect x="110" y="224" width="189" height="32" rx="5" fill="#E9E9E9"/>
<rect x="110" y="276" width="220" height="32" rx="5" fill="#E9E9E9"/>
<rect x="110" y="328" width="189" height="32" rx="5" fill="#E9E9E9"/>
<rect x="110" y="410" width="220" height="136" rx="5" fill="#E9E9E9"/>
<path d="M1 10C1 5.02944 5.02944 1 10 1H1060C1064.97 1 1069 5.02944 1069 10V582C1069 586.971 1064.97 591 1060 591H9.99997C5.02942 591 1 586.971 1 582V10Z" stroke="#E9E9E9" stroke-width="2"/>
<rect x="110" y="90" width="220" height="32" rx="5" fill="#E9E9E9"/>
<rect x="425" y="90" width="535" height="32" rx="5" fill="#E9E9E9"/>
</svg>
