<svg width="41" height="40" viewBox="0 0 41 40" fill="none" xmlns="http://www.w3.org/2000/svg">
<g id="share-variant-outline">
<path id="Vector" d="M30.5 26.8C29.2333 26.8 28.1 27.3 27.2333 28.0834L15.35 21.1667C15.4333 20.7834 15.5 20.4 15.5 20C15.5 19.6 15.4333 19.2167 15.35 18.8334L27.1 11.9834C28 12.8167 29.1833 13.3334 30.5 13.3334C33.2667 13.3334 35.5 11.1 35.5 8.33337C35.5 5.56671 33.2667 3.33337 30.5 3.33337C27.7333 3.33337 25.5 5.56671 25.5 8.33337C25.5 8.73337 25.5667 9.11671 25.65 9.50004L13.9 16.35C13 15.5167 11.8167 15 10.5 15C7.73333 15 5.5 17.2334 5.5 20C5.5 22.7667 7.73333 25 10.5 25C11.8167 25 13 24.4834 13.9 23.65L25.7667 30.5667C25.6833 30.9167 25.6333 31.2834 25.6333 31.6667C25.6333 34.35 27.8167 36.5167 30.5 36.5167C33.1833 36.5167 35.3667 34.35 35.3667 31.6667C35.3667 28.9834 33.1833 26.8 30.5 26.8ZM30.5 6.66671C31.4167 6.66671 32.1667 7.41671 32.1667 8.33337C32.1667 9.25004 31.4167 10 30.5 10C29.5833 10 28.8333 9.25004 28.8333 8.33337C28.8333 7.41671 29.5833 6.66671 30.5 6.66671ZM10.5 21.6667C9.58333 21.6667 8.83333 20.9167 8.83333 20C8.83333 19.0834 9.58333 18.3334 10.5 18.3334C11.4167 18.3334 12.1667 19.0834 12.1667 20C12.1667 20.9167 11.4167 21.6667 10.5 21.6667ZM30.5 33.3334C29.5833 33.3334 28.8333 32.5834 28.8333 31.6667C28.8333 30.75 29.5833 30 30.5 30C31.4167 30 32.1667 30.75 32.1667 31.6667C32.1667 32.5834 31.4167 33.3334 30.5 33.3334Z" fill="#146EF5"/>
</g>
</svg>
