<svg width="41" height="40" viewBox="0 0 41 40" fill="none" xmlns="http://www.w3.org/2000/svg">
<g id="timer-off-outline">
<path id="Vector" d="M20.4993 33.3332C17.4052 33.3332 14.4377 32.104 12.2498 29.9161C10.0618 27.7282 8.83268 24.7607 8.83268 21.6665C8.83268 19.5332 9.41602 17.4998 10.416 15.8332L26.3327 31.7332C24.666 32.7498 22.6327 33.3332 20.4993 33.3332ZM5.49935 6.6665L3.41602 8.78317L7.99935 13.3832C6.41602 15.7498 5.49935 18.5998 5.49935 21.6665C5.49935 25.6448 7.0797 29.4601 9.89275 32.2731C12.7058 35.0862 16.5211 36.6665 20.4993 36.6665C23.566 36.6665 26.416 35.7498 28.8327 34.1665L32.9993 38.3332L35.0827 36.2165L22.2327 23.3332L5.49935 6.6665ZM18.8327 15.7332L22.166 19.0665V13.3332H18.8327M25.4993 1.6665H15.4993V4.99984H25.4993M32.2327 7.58317L29.866 9.94984C27.2827 7.89984 24.0327 6.6665 20.4993 6.6665C17.4493 6.6665 14.616 7.58317 12.2493 9.1665L14.666 11.5665C16.3827 10.5832 18.3827 9.99984 20.4993 9.99984C23.5935 9.99984 26.561 11.229 28.7489 13.4169C30.9369 15.6049 32.166 18.5723 32.166 21.6665C32.166 23.7832 31.5827 25.7832 30.5993 27.4998L32.9993 29.8998C34.5827 27.5498 35.4993 24.7165 35.4993 21.6665C35.4993 18.1332 34.266 14.8832 32.216 12.3165L34.5827 9.94984L32.2327 7.58317Z" fill="#146EF5"/>
</g>
</svg>
